<svg width="37" height="37" viewBox="0 0 37 37" fill="none" xmlns="http://www.w3.org/2000/svg">
<g clip-path="url(#clip0_1_366)">
<path d="M35.8017 30.0792L28.8152 23.1761C28.1111 24.3072 27.2734 25.3678 26.3052 26.3327C25.3289 27.3099 24.2578 28.1565 23.1138 28.8655L30.1407 35.8082C31.7158 37.3662 34.2493 37.3524 35.8155 35.7887C35.8219 35.7823 35.8276 35.7766 35.8333 35.7717C37.4051 34.1991 37.384 31.6429 35.8017 30.0792Z" fill="white"/>
<path d="M27.8592 13.9592C27.8592 6.27833 21.6108 0.0299686 13.9292 0.0299686C10.0896 0.0291584 6.60729 1.59206 4.08509 4.11425C1.5629 6.63645 0 10.1187 0 13.9592C0.000810213 21.6392 6.24917 27.8883 13.9292 27.8883C17.7696 27.8883 21.2527 26.3262 23.7741 23.8032C26.2971 21.281 27.8592 17.7996 27.8592 13.9592ZM19.979 20.0082C18.4291 21.5573 16.2885 22.5182 13.93 22.5182C9.2105 22.5182 5.3709 18.6795 5.3709 13.9592C5.3709 11.5998 6.33101 9.46004 7.88094 7.9101C9.43007 6.36016 11.5707 5.40087 13.9308 5.40006C18.6487 5.40006 22.4891 9.23966 22.4891 13.9583C22.4891 16.3185 21.529 18.4583 19.979 20.0082Z" fill="white"/>
</g>
<defs>
<clipPath id="clip0_1_366">
<rect width="37" height="37" fill="white"/>
</clipPath>
</defs>
</svg>
