<svg width="39" height="39" viewBox="0 0 39 39" fill="none" xmlns="http://www.w3.org/2000/svg">
<g clip-path="url(#clip0_1_436)">
<path d="M19.5 28.1157C24.2583 28.1157 28.1157 24.2584 28.1157 19.5001C28.1157 14.7418 24.2583 10.8844 19.5 10.8844C14.7417 10.8844 10.8843 14.7418 10.8843 19.5001C10.8843 24.2584 14.7417 28.1157 19.5 28.1157Z" fill="white"/>
<path d="M19.5 29.5246C13.9726 29.5246 9.47559 25.0276 9.47559 19.5001C9.47559 13.9727 13.9726 9.47571 19.5 9.47571C25.0275 9.47571 29.5244 13.9727 29.5244 19.5001C29.5244 25.0276 25.0275 29.5246 19.5 29.5246ZM19.5 12.2931C15.5262 12.2931 12.2931 15.5261 12.2931 19.4999C12.2931 23.4738 15.5262 26.7068 19.5 26.7068C23.4739 26.7068 26.7069 23.4738 26.7069 19.4999C26.7069 15.5261 23.4739 12.2931 19.5 12.2931Z" fill="white"/>
<path d="M19.5 7.39792C18.722 7.39792 18.0912 6.76717 18.0912 5.98915V1.40877C18.0912 0.630753 18.722 0 19.5 0C20.278 0 20.9088 0.630753 20.9088 1.40877V5.98915C20.9088 6.76717 20.278 7.39792 19.5 7.39792Z" fill="white"/>
<path d="M19.5 39C18.722 39 18.0912 38.3692 18.0912 37.5912V33.0108C18.0912 32.2328 18.722 31.6021 19.5 31.6021C20.278 31.6021 20.9088 32.2328 20.9088 33.0108V37.5912C20.9088 38.3694 20.278 39 19.5 39Z" fill="white"/>
<path d="M37.5912 20.9087H33.0108C32.2328 20.9087 31.6021 20.278 31.6021 19.5C31.6021 18.7219 32.2328 18.0912 33.0108 18.0912H37.5912C38.3692 18.0912 39 18.7219 39 19.5C39 20.278 38.3694 20.9087 37.5912 20.9087Z" fill="white"/>
<path d="M5.98915 20.9087H1.40877C0.630753 20.9087 0 20.278 0 19.5C0 18.7219 0.630753 18.0912 1.40877 18.0912H5.98915C6.76717 18.0912 7.39792 18.7219 7.39792 19.5C7.39792 20.278 6.76717 20.9087 5.98915 20.9087Z" fill="white"/>
<path d="M29.0537 11.3551C28.6933 11.3551 28.3326 11.2176 28.0576 10.9424C27.5075 10.3922 27.5075 9.50018 28.0576 8.95019L31.2965 5.71153C31.8467 5.16136 32.7387 5.16117 33.2887 5.71153C33.8389 6.2617 33.8389 7.15373 33.2887 7.70372L30.0498 10.9424C29.7748 11.2176 29.4142 11.3551 29.0537 11.3551Z" fill="white"/>
<path d="M6.70743 33.7014C6.34697 33.7014 5.98633 33.5639 5.71133 33.2887C5.16116 32.7385 5.16116 31.8465 5.71133 31.2965L8.95019 28.0576C9.50036 27.5075 10.3924 27.5075 10.9424 28.0576C11.4925 28.6078 11.4925 29.4999 10.9424 30.0498L7.70352 33.2887C7.42853 33.5639 7.06807 33.7014 6.70743 33.7014Z" fill="white"/>
<path d="M32.2924 33.7014C31.9319 33.7014 31.5713 33.5639 31.2963 33.2887L28.0574 30.0498C27.5072 29.4997 27.5072 28.6076 28.0574 28.0576C28.6076 27.5075 29.4996 27.5075 30.0496 28.0576L33.2884 31.2965C33.8386 31.8467 33.8386 32.7387 33.2884 33.2887C33.0135 33.5639 32.653 33.7014 32.2924 33.7014Z" fill="white"/>
<path d="M9.94628 11.3551C9.58583 11.3551 9.22518 11.2176 8.95019 10.9424L5.71133 7.70372C5.16116 7.15354 5.16116 6.2617 5.71133 5.71153C6.26151 5.16136 7.15354 5.16117 7.70352 5.71153L10.9424 8.95019C11.4925 9.50037 11.4925 10.3922 10.9424 10.9424C10.6674 11.2176 10.3069 11.3551 9.94628 11.3551Z" fill="white"/>
</g>
<defs>
<clipPath id="clip0_1_436">
<rect width="39" height="39" fill="white"/>
</clipPath>
</defs>
</svg>
